<?xml version="1.0" encoding="UTF-8" standalone="no"?>
<!-- Created with Inkscape (http://www.inkscape.org/) -->

<svg
   xmlns:dc="http://purl.org/dc/elements/1.1/"
   xmlns:cc="http://creativecommons.org/ns#"
   xmlns:rdf="http://www.w3.org/1999/02/22-rdf-syntax-ns#"
   xmlns:svg="http://www.w3.org/2000/svg"
   xmlns="http://www.w3.org/2000/svg"
   xmlns:sodipodi="http://sodipodi.sourceforge.net/DTD/sodipodi-0.dtd"
   xmlns:inkscape="http://www.inkscape.org/namespaces/inkscape"
   width="300"
   height="300"
   viewBox="0 0 79.374998 79.375002"
   version="1.1"
   id="svg1324"
   inkscape:version="0.92.3 (2405546, 2018-03-11)"
   sodipodi:docname="ico_jackpot.svg">
  <defs
     id="defs1318" />
  <sodipodi:namedview
     id="base"
     pagecolor="#ffffff"
     bordercolor="#666666"
     borderopacity="1.0"
     inkscape:pageopacity="0.0"
     inkscape:pageshadow="2"
     inkscape:zoom="1.4"
     inkscape:cx="134.34787"
     inkscape:cy="141.8623"
     inkscape:document-units="mm"
     inkscape:current-layer="layer1"
     showgrid="false"
     units="px"
     inkscape:window-width="1600"
     inkscape:window-height="835"
     inkscape:window-x="0"
     inkscape:window-y="0"
     inkscape:window-maximized="1" />
  <metadata
     id="metadata1321">
    <rdf:RDF>
      <cc:Work
         rdf:about="">
        <dc:format>image/svg+xml</dc:format>
        <dc:type
           rdf:resource="http://purl.org/dc/dcmitype/StillImage" />
        <dc:title></dc:title>
      </cc:Work>
    </rdf:RDF>
  </metadata>
  <g
     inkscape:label="Camada 1"
     inkscape:groupmode="layer"
     id="layer1"
     transform="translate(0,-217.62498)">
    <path
       style="opacity:1;fill:#ffffff;fill-opacity:1;stroke:#ac00ff;stroke-width:1.05833328;stroke-linecap:round;stroke-linejoin:round;stroke-miterlimit:4;stroke-dasharray:none;stroke-opacity:1"
       id="path1869"
       sodipodi:type="arc"
       sodipodi:cx="39.876488"
       sodipodi:cy="258.44641"
       sodipodi:rx="34.395832"
       sodipodi:ry="35.151787"
       sodipodi:start="0"
       sodipodi:end="6.2750521"
       sodipodi:open="true"
       d="M 74.27232,258.44641 A 34.395832,35.151787 0 0 1 39.946425,293.59813 34.395832,35.151787 0 0 1 5.4809401,258.58936 34.395832,35.151787 0 0 1 39.666678,223.29528 34.395832,35.151787 0 0 1 74.271182,258.16052" />
    <rect
       style="opacity:1;fill:none;fill-opacity:1;stroke:#ac00ff;stroke-width:1.05833328;stroke-linecap:round;stroke-linejoin:round;stroke-miterlimit:4;stroke-dasharray:none;stroke-opacity:1"
       id="rect1871"
       width="37.797619"
       height="20.032738"
       x="-127.7931"
       y="226.66048"
       transform="rotate(-32.881039)" />
    <path
       style="opacity:1;fill:none;fill-opacity:1;stroke:#ac00ff;stroke-width:1.05833328;stroke-linecap:round;stroke-linejoin:round;stroke-miterlimit:4;stroke-dasharray:none;stroke-opacity:1"
       id="path1873"
       sodipodi:type="arc"
       sodipodi:cx="52.82217"
       sodipodi:cy="276.96725"
       sodipodi:rx="5.953125"
       sodipodi:ry="2.0788691"
       sodipodi:start="0"
       sodipodi:end="6.2750521"
       sodipodi:open="true"
       d="m 58.775295,276.96725 a 5.953125,2.0788691 0 0 1 -5.94102,2.07887 5.953125,2.0788691 0 0 1 -5.965181,-2.07041 5.953125,2.0788691 0 0 1 5.916763,-2.08729 5.953125,2.0788691 0 0 1 5.989241,2.06193" />
    <path
       style="opacity:1;fill:#ffffff;fill-opacity:1;stroke:#ac00ff;stroke-width:1.05833328;stroke-linecap:round;stroke-linejoin:round;stroke-miterlimit:4;stroke-dasharray:none;stroke-opacity:1"
       id="path1875"
       sodipodi:type="arc"
       sodipodi:cx="52.633083"
       sodipodi:cy="273.55701"
       sodipodi:rx="6.1420135"
       sodipodi:ry="3.3933382"
       sodipodi:start="0"
       sodipodi:end="6.2750521"
       sodipodi:open="true"
       d="m 58.775097,273.55701 a 6.1420135,3.3933382 0 0 1 -6.129525,3.39333 6.1420135,3.3933382 0 0 1 -6.154451,-3.37953 6.1420135,3.3933382 0 0 1 6.104497,-3.40708 6.1420135,3.3933382 0 0 1 6.179276,3.36568" />
    <path
       style="opacity:1;fill:#ffffff;fill-opacity:1;stroke:#ac00ff;stroke-width:1.05833328;stroke-linecap:round;stroke-linejoin:round;stroke-miterlimit:4;stroke-dasharray:none;stroke-opacity:1"
       id="path1877"
       sodipodi:type="arc"
       sodipodi:cx="52.727478"
       sodipodi:cy="270.6181"
       sodipodi:rx="6.0474172"
       sodipodi:ry="2.9112914"
       sodipodi:start="0"
       sodipodi:end="6.2750521"
       sodipodi:open="true"
       d="m 58.774895,270.6181 a 6.0474172,2.9112914 0 0 1 -6.035121,2.91129 6.0474172,2.9112914 0 0 1 -6.059663,-2.89945 6.0474172,2.9112914 0 0 1 6.010479,-2.92307 6.0474172,2.9112914 0 0 1 6.084105,2.88756" />
    <rect
       style="opacity:1;fill:#ffffff;fill-opacity:1;stroke:#ac00ff;stroke-width:1.05833328;stroke-linecap:round;stroke-linejoin:round;stroke-miterlimit:4;stroke-dasharray:none;stroke-opacity:1"
       id="rect1871-7"
       width="37.797619"
       height="20.032738"
       x="-158.17531"
       y="206.60741"
       transform="rotate(-40.903453)" />
    <rect
       style="opacity:1;fill:#ffffff;fill-opacity:1;stroke:#ac00ff;stroke-width:1.05833328;stroke-linecap:round;stroke-linejoin:round;stroke-miterlimit:4;stroke-dasharray:none;stroke-opacity:1"
       id="rect1871-1"
       width="37.797619"
       height="20.032738"
       x="-198.30319"
       y="172.47968"
       transform="rotate(-51.840629)"
       inkscape:transform-center-x="-3.4017858"
       inkscape:transform-center-y="-4.1577382" />
    <path
       style="opacity:1;fill:#ffffff;fill-opacity:1;stroke:#ac00ff;stroke-width:1.05833328;stroke-linecap:round;stroke-linejoin:round;stroke-miterlimit:4;stroke-dasharray:none;stroke-opacity:1"
       id="path1900"
       sodipodi:type="arc"
       sodipodi:cx="32.505951"
       sodipodi:cy="253.62721"
       sodipodi:rx="6.0476193"
       sodipodi:ry="6.1421127"
       sodipodi:start="0"
       sodipodi:end="6.2750521"
       sodipodi:open="true"
       d="m 38.55357,253.62721 a 6.0476193,6.1421127 0 0 1 -6.035322,6.1421 6.0476193,6.1421127 0 0 1 -6.059866,-6.11712 6.0476193,6.1421127 0 0 1 6.010679,-6.16698 6.0476193,6.1421127 0 0 1 6.084309,6.09205" />
    <path
       style="fill:none;stroke:#ac00ff;stroke-width:1;stroke-linecap:butt;stroke-linejoin:miter;stroke-opacity:1;stroke-miterlimit:4;stroke-dasharray:none"
       d="m 18.378437,262.94061 4.867099,-5.06117"
       id="path1902"
       inkscape:connector-curvature="0"
       sodipodi:nodetypes="cc" />
    <path
       style="fill:none;stroke:#ac00ff;stroke-width:1;stroke-linecap:butt;stroke-linejoin:miter;stroke-opacity:1;stroke-miterlimit:4;stroke-dasharray:none"
       d="m 44.223213,249.56397 4.200097,-4.98218"
       id="path1904"
       inkscape:connector-curvature="0"
       sodipodi:nodetypes="cc" />
    <g
       aria-label="$"
       transform="matrix(0.16140603,-0.20964836,0.20964836,0.16140603,-15.259623,297.98488)"
       style="font-style:normal;font-weight:normal;font-size:40px;line-height:1.25;font-family:sans-serif;letter-spacing:0px;word-spacing:0px;fill:#ac00ff;fill-opacity:1;stroke:none"
       id="flowRoot1906">
      <path
         d="m 247.66992,59.126953 h -3.16406 l -0.0195,-5.878906 q -2.44141,-0.09766 -4.72656,-0.546875 -2.28516,-0.449219 -4.45313,-1.25 v -5.117188 q 2.24609,1.152344 4.53125,1.777344 2.30469,0.605469 4.66797,0.683594 v -6.074219 l -0.64453,-0.117187 q -4.66797,-0.820313 -6.64063,-2.578125 -1.95312,-1.757813 -1.95312,-5.058594 0,-3.496094 2.38281,-5.449219 2.40234,-1.972656 6.83594,-2.148437 l 0.0195,-4.511719 h 3.16406 v 4.433594 q 1.95313,0.15625 3.90625,0.488281 1.95313,0.332031 3.92578,0.859375 v 4.960937 q -1.95312,-0.820312 -3.90625,-1.269531 -1.95312,-0.46875 -3.92578,-0.566406 v 5.605469 l 0.625,0.117187 q 4.96094,0.78125 6.95313,2.617188 2.01172,1.816406 2.01172,5.390625 0,3.59375 -2.38282,5.527343 -2.38281,1.914063 -7.20703,2.1875 z m -3.16406,-22.207031 v -5.097656 q -1.38672,0.07813 -2.22656,0.761718 -0.82032,0.664063 -0.82032,1.699219 0,1.152344 0.76172,1.816406 0.76172,0.644532 2.28516,0.820313 z m 3.16406,6.367187 v 5.429688 q 1.69922,-0.01953 2.53906,-0.664063 0.85938,-0.644531 0.85938,-1.933593 0,-1.328125 -0.78125,-1.972657 -0.78125,-0.664062 -2.61719,-0.859375 z"
         style="font-style:normal;font-variant:normal;font-weight:bold;font-stretch:normal;font-family:sans-serif;-inkscape-font-specification:'sans-serif Bold';fill:#ac00ff;fill-opacity:1"
         id="path1914"
         inkscape:connector-curvature="0" />
    </g>
  </g>
</svg>
