<?xml version="1.0" encoding="UTF-8" standalone="no"?>
<!-- Created with Inkscape (http://www.inkscape.org/) -->

<svg
   xmlns:dc="http://purl.org/dc/elements/1.1/"
   xmlns:cc="http://creativecommons.org/ns#"
   xmlns:rdf="http://www.w3.org/1999/02/22-rdf-syntax-ns#"
   xmlns:svg="http://www.w3.org/2000/svg"
   xmlns="http://www.w3.org/2000/svg"
   xmlns:sodipodi="http://sodipodi.sourceforge.net/DTD/sodipodi-0.dtd"
   xmlns:inkscape="http://www.inkscape.org/namespaces/inkscape"
   width="300"
   height="300"
   viewBox="0 0 79.374998 79.375002"
   version="1.1"
   id="svg2521"
   inkscape:version="0.92.3 (2405546, 2018-03-11)"
   sodipodi:docname="ico_folha4.svg">
  <defs
     id="defs2515" />
  <sodipodi:namedview
     id="base"
     pagecolor="#ffffff"
     bordercolor="#666666"
     borderopacity="1.0"
     inkscape:pageopacity="0.0"
     inkscape:pageshadow="2"
     inkscape:zoom="1.4"
     inkscape:cx="103.28185"
     inkscape:cy="181.80432"
     inkscape:document-units="mm"
     inkscape:current-layer="layer1"
     showgrid="false"
     units="px"
     inkscape:window-width="1600"
     inkscape:window-height="835"
     inkscape:window-x="0"
     inkscape:window-y="0"
     inkscape:window-maximized="1" />
  <metadata
     id="metadata2518">
    <rdf:RDF>
      <cc:Work
         rdf:about="">
        <dc:format>image/svg+xml</dc:format>
        <dc:type
           rdf:resource="http://purl.org/dc/dcmitype/StillImage" />
        <dc:title></dc:title>
      </cc:Work>
    </rdf:RDF>
  </metadata>
  <g
     inkscape:label="Camada 1"
     inkscape:groupmode="layer"
     id="layer1"
     transform="translate(0,-217.62498)">
    <path
       style="opacity:1;fill:none;fill-opacity:1;stroke:#ffffff;stroke-width:1.12049854;stroke-linecap:round;stroke-linejoin:round;stroke-miterlimit:4;stroke-dasharray:none;stroke-opacity:1"
       id="path3066"
       sodipodi:type="arc"
       sodipodi:cx="40.537945"
       sodipodi:cy="259.10788"
       sodipodi:rx="33.86311"
       sodipodi:ry="34.430077"
       sodipodi:start="0"
       sodipodi:end="6.2750521"
       sodipodi:open="true"
       d="m 74.401054,259.10788 a 33.86311,34.430077 0 0 1 -33.794255,34.43001 33.86311,34.430077 0 0 1 -33.9316838,-34.29 33.86311,34.430077 0 0 1 33.6562688,-34.56945 33.86311,34.430077 0 0 1 34.06855,34.14942" />
    <path
       style="opacity:1;fill:#ffffff;fill-opacity:1;stroke:none;stroke-width:1.0649426;stroke-linecap:round;stroke-linejoin:round;stroke-miterlimit:4;stroke-dasharray:none;stroke-opacity:1"
       d="m 24.561424,236.57964 c -1.677682,1.7267 -2.619033,4.36933 -2.65299,7.44764 -3.635712,0.85386 -6.362643,2.86342 -7.474365,5.50807 -2.103383,5.03557 2.121585,10.90677 9.44364,13.1233 5.538725,1.67092 14.149733,0.59421 17.585141,-2.38455 3.505383,-1.95541 -1.029288,-8.94774 -2.199547,-14.49649 v 0 c -1.608283,-7.40738 -4.066688,-11.27414 -9.677869,-11.29357 -1.942069,-0.007 -3.68539,0.72043 -5.024032,2.09558 z"
       id="path3068"
       inkscape:connector-curvature="0"
       sodipodi:nodetypes="cccccccscc" />
    <path
       style="opacity:1;fill:#ffffff;fill-opacity:1;stroke:none;stroke-width:1.0649426;stroke-linecap:round;stroke-linejoin:round;stroke-miterlimit:4;stroke-dasharray:none;stroke-opacity:1"
       d="m 57.148815,284.79014 c 1.762561,-1.63997 2.835881,-4.2318 3.024914,-7.30449 3.67412,-0.66957 6.498851,-2.53916 7.742427,-5.12443 2.354459,-4.92318 -1.569285,-10.99982 -8.770345,-13.5825 -5.447489,-1.9479 -14.101814,-1.30648 -17.682961,1.49538 -3.599465,1.77629 0.577096,8.98824 1.46626,14.58891 v 0 c 1.232973,7.47902 3.493405,11.46474 9.096478,11.7669 1.939249,0.10486 3.717011,-0.5338 5.123248,-1.83975 z"
       id="path3068-9"
       inkscape:connector-curvature="0"
       sodipodi:nodetypes="cccccccscc" />
    <path
       style="opacity:1;fill:#ffffff;fill-opacity:1;stroke:none;stroke-width:1.0649426;stroke-linecap:round;stroke-linejoin:round;stroke-miterlimit:4;stroke-dasharray:none;stroke-opacity:1"
       d="m 14.753732,271.83735 c 1.336973,2.00215 3.723795,3.47616 6.726702,4.15417 0.07335,3.73391 1.467126,6.82129 3.820236,8.46232 4.483267,3.11151 11.109213,0.2101 14.810306,-6.48523 2.794037,-5.06585 3.544944,-13.71136 1.351874,-17.69451 -1.177765,-3.83722 -8.964842,-0.86781 -14.635628,-0.8858 v 0 c -7.579935,0.021 -11.875869,1.6149 -13.070231,7.09753 -0.413646,1.89752 -0.06752,3.75454 0.996717,5.35153 z"
       id="path3068-7"
       inkscape:connector-curvature="0"
       sodipodi:nodetypes="cccccccscc" />
    <path
       style="opacity:1;fill:#ffffff;fill-opacity:1;stroke:none;stroke-width:1.0649426;stroke-linecap:round;stroke-linejoin:round;stroke-miterlimit:4;stroke-dasharray:none;stroke-opacity:1"
       d="m 68.720721,250.07144 c -1.234388,-2.06698 -3.543894,-3.65939 -6.508821,-4.48786 0.114895,-3.73287 -1.121529,-6.88655 -3.388957,-8.64407 -4.320778,-3.33348 -11.084509,-0.76964 -15.118286,5.73068 -3.045761,4.91862 -4.231374,13.51531 -2.241807,17.60391 0.982911,3.89169 8.909724,1.31845 14.572397,1.62218 v 0 c 7.57137,0.36099 11.942157,-1.01441 13.411278,-6.42989 0.508744,-1.87427 0.256636,-3.74637 -0.72578,-5.39496 z"
       id="path3068-9-7"
       inkscape:connector-curvature="0"
       sodipodi:nodetypes="cccccccscc" />
  </g>
</svg>
